<svg xmlns="http://www.w3.org/2000/svg" version="1.1" xmlns:xlink="http://www.w3.org/1999/xlink" xmlns:svgjs="http://svgjs.com/svgjs" width="1440" height="900" preserveAspectRatio="none" viewBox="0 0 1440 900"><g mask="url(&quot;#SvgjsMask12725&quot;)" fill="none"><rect width="1440" height="900" x="0" y="0" fill="url(#SvgjsRadialGradient12726)"></rect><path d="M49 900L949 0L1217.5 0L317.5 900z" fill="url(#SvgjsLinearGradient12727)"></path><path d="M556.2 900L1456.2 0L1847.7 0L947.7 900z" fill="url(#SvgjsLinearGradient12727)"></path><path d="M1374 900L474 0L351 0L1251 900z" fill="url(#SvgjsLinearGradient12728)"></path><path d="M945.8 900L45.799999999999955 0L-504.70000000000005 0L395.29999999999995 900z" fill="url(#SvgjsLinearGradient12728)"></path><path d="M858.4185088471615 900L1440 318.41850884716155L1440 900z" fill="url(#SvgjsLinearGradient12727)"></path><path d="M0 900L581.5814911528385 900L 0 318.41850884716155z" fill="url(#SvgjsLinearGradient12728)"></path></g><defs><mask id="SvgjsMask12725"><rect width="1440" height="900" fill="#ffffff"></rect></mask><radialGradient cx="0%" cy="0%" r="1698.12" gradientUnits="userSpaceOnUse" id="SvgjsRadialGradient12726"><stop stop-color="rgba(0, 20, 70, 1)" offset="0"></stop><stop stop-color="rgba(99, 0, 115, 1)" offset="1"></stop></radialGradient><linearGradient x1="0%" y1="100%" x2="100%" y2="0%" id="SvgjsLinearGradient12727"><stop stop-color="rgba(113, 41, 153, 0.2)" offset="0"></stop><stop stop-opacity="0" stop-color="rgba(113, 41, 153, 0.2)" offset="0.66"></stop></linearGradient><linearGradient x1="100%" y1="100%" x2="0%" y2="0%" id="SvgjsLinearGradient12728"><stop stop-color="rgba(113, 41, 153, 0.2)" offset="0"></stop><stop stop-opacity="0" stop-color="rgba(113, 41, 153, 0.2)" offset="0.66"></stop></linearGradient></defs></svg>